HIERARCHY
ROOT hip
{
	OFFSET 0.000000 0.000000 0.000000
	CHANNELS 6 Xposition Yposition Zposition Xrotation Zrotation Yrotation 
	JOINT abdomen
	{
		OFFSET 0.000000 3.422050 0.000000
		CHANNELS 3 Xrotation Zrotation Yrotation 
		JOINT chest
		{
			OFFSET 0.000000 8.486693 -0.684411
			CHANNELS 3 Xrotation Zrotation Yrotation 
			JOINT neck
			{
				OFFSET 0.000000 10.266162 -0.273764
				CHANNELS 3 Xrotation Zrotation Yrotation 
				JOINT head
				{
					OFFSET 0.000000 3.148285 0.000000
					CHANNELS 3 Xrotation Zrotation Yrotation 
					End Site
					{
						OFFSET 0.000000 3.148289 0.000000
					}
				}
			}
			JOINT lCollar
			{
				OFFSET 3.422053 6.707223 -0.821293
				CHANNELS 3 Yrotation Zrotation Xrotation 
				JOINT lShldr
				{
					OFFSET 3.285171 0.000000 0.000000
					CHANNELS 3 Zrotation Yrotation Xrotation 
					JOINT lForeArm
					{
						OFFSET 10.129278 0.000000 0.000000
						CHANNELS 3 Yrotation Zrotation Xrotation 
						JOINT lHand
						{
							OFFSET 8.486692 0.000000 0.000000
							CHANNELS 3 Zrotation Yrotation Xrotation 
							End Site
							{
								OFFSET 4.106464 0.000000 0.000000
							}
						}
					}
				}
			}
			JOINT rCollar
			{
				OFFSET -3.558935 6.707223 -0.821293
				CHANNELS 3 Yrotation Zrotation Xrotation 
				JOINT rShldr
				{
					OFFSET -3.148289 0.000000 0.000000
					CHANNELS 3 Zrotation Yrotation Xrotation 
					JOINT rForeArm
					{
						OFFSET -10.266159 0.000000 0.000000
						CHANNELS 3 Yrotation Zrotation Xrotation 
						JOINT rHand
						{
							OFFSET -8.349810 0.000000 0.000000
							CHANNELS 3 Zrotation Yrotation Xrotation 
							End Site
							{
								OFFSET -4.106464 0.000000 0.000000
							}
						}
					}
				}
			}
		}
	}
	JOINT lThigh
	{
		OFFSET 5.338403 -1.642589 1.368821
		CHANNELS 3 Xrotation Zrotation Yrotation 
		JOINT lShin
		{
			OFFSET -2.053232 -20.121670 0.000000
			CHANNELS 3 Xrotation Zrotation Yrotation 
			JOINT lFoot
			{
				OFFSET 0.000000 -19.300380 -1.231939
				CHANNELS 3 Xrotation Yrotation Zrotation 
				End Site
				{
					OFFSET 0.000000 -2.463878 4.653993
				}
			}
		}
	}
	JOINT rThigh
	{
		OFFSET -5.338403 -1.642589 1.368821
		CHANNELS 3 Xrotation Zrotation Yrotation 
		JOINT rShin
		{
			OFFSET 2.053232 -20.121670 0.000000
			CHANNELS 3 Xrotation Zrotation Yrotation 
			JOINT rFoot
			{
				OFFSET 0.000000 -19.300380 -1.231939
				CHANNELS 3 Xrotation Yrotation Zrotation 
				End Site
				{
					OFFSET 0.000000 -2.463878 4.653993
				}
			}
		}
	}
}
MOTION
Frames: 6
Frame Time: 0.055410
0.000000 43.528500 0.000000 0.000000 0.000000 0.000000 0.000000 0.000000 0.000000 0.000000 0.000000 0.000000 0.000000 0.000000 0.000000 0.000000 0.000000 0.000000 0.000000 0.000000 0.000000 0.000000 0.000000 0.000000 0.000000 0.000000 0.000000 0.000000 0.000000 0.000000 0.000000 0.000000 0.000000 0.000000 0.000000 0.000000 0.000000 0.000000 0.000000 0.000000 0.000000 0.000000 0.000000 0.000000 0.000000 0.000000 0.000000 0.000000 0.000000 0.000000 0.000000 0.000000 0.000000 0.000000 0.000000 0.000000 0.000000 0.000000 0.000000 0.000000 
0.000000 5.071640 0.000000 -89.002243 0.000000 0.000000 -0.227682 -0.744654 -0.752171 8.527067 -0.159841 -1.125345 5.998535 0.000000 0.000000 20.996786 0.000000 0.000000 -8.018090 -1.596131 -7.214373 4.757692 -49.757137 -24.565813 -56.507805 -13.699747 -43.141632 -41.587551 -26.427902 -12.217385 7.794390 1.650150 -7.087573 -4.735743 49.794800 -24.525433 56.440536 13.658357 -43.146553 41.581097 26.775318 -12.160684 -55.247040 10.104111 -0.286881 128.881622 4.934641 -0.202170 8.681975 0.914092 2.636735 -44.969486 -10.497895 -0.608469 113.557739 -3.573772 0.975628 8.660902 -0.911184 -2.651110 
0.000000 5.071640 -0.031656 -89.002243 0.000000 0.000000 -0.842546 -0.744533 -0.752361 9.678301 -0.159887 -1.125292 5.306695 0.000000 0.000000 19.921957 0.000000 0.000000 -8.182587 -1.377626 -7.663613 4.757690 -49.757126 -24.565807 -56.275669 -13.665852 -43.086796 -41.587543 -26.427900 -12.217384 7.979812 1.429460 -7.533612 -4.735743 49.794796 -24.525431 56.219601 13.625748 -43.095810 41.581097 26.775318 -12.160684 -55.247036 10.104111 -0.286881 128.881622 4.934640 -0.202170 8.681974 0.914092 2.636735 -44.969486 -10.497893 -0.608469 113.557739 -3.573772 0.975628 8.660902 -0.911184 -2.651110 
0.000000 5.071640 -0.063312 -89.002243 0.000000 0.000000 -1.457605 -0.744415 -0.752553 10.830821 -0.159934 -1.125239 4.614577 0.000000 0.000000 18.846085 0.000000 0.000000 -8.345385 -1.157788 -8.112291 4.757692 -49.757137 -24.565813 -56.043613 -13.631744 -43.032124 -41.587551 -26.427902 -12.217385 8.163535 1.207283 -7.978995 -4.735744 49.794804 -24.525433 55.998722 13.592945 -43.045200 41.581097 26.775318 -12.160684 -55.247040 10.104111 -0.286881 128.881638 4.934641 -0.202170 8.681975 0.914092 2.636735 -44.969486 -10.497895 -0.608469 113.557739 -3.573772 0.975629 8.660902 -0.911184 -2.651110 
0.000000 5.071640 -0.094967 -89.002243 0.000000 0.000000 -2.072823 -0.744299 -0.752747 11.984391 -0.159982 -1.125187 3.922233 0.000000 0.000000 17.769360 0.000000 0.000000 -8.506476 -0.936643 -8.560392 4.757691 -49.757133 -24.565813 -55.811592 -13.597413 -42.977581 -41.587547 -26.427900 -12.217381 8.345549 0.983644 -8.423717 -4.735741 49.794796 -24.525431 55.777889 13.559949 -42.994724 41.581097 26.775318 -12.160683 -55.247040 10.104111 -0.286881 128.881622 4.934641 -0.202170 8.681975 0.914092 2.636735 -44.969486 -10.497895 -0.608469 113.557739 -3.573772 0.975628 8.660902 -0.911184 -2.651110 
0.000000 5.071640 -0.126623 -89.002243 0.000000 0.000000 -2.688166 -0.744184 -0.752941 13.138785 -0.160031 -1.125137 3.229709 0.000000 0.000000 16.691963 0.000000 0.000000 -8.665849 -0.714212 -9.007914 4.757692 -49.757141 -24.565815 -55.579643 -13.562879 -42.923199 -41.587551 -26.427904 -12.217386 8.525836 0.758566 -8.867767 -4.735743 49.794800 -24.525433 55.557117 13.526764 -42.944378 41.581100 26.775320 -12.160686 -55.247044 10.104112 -0.286881 128.881622 4.934640 -0.202170 8.681975 0.914092 2.636735 -44.969486 -10.497895 -0.608469 113.557739 -3.573771 0.975628 8.660903 -0.911184 -2.651110 
